name Walk8.mot
datacolumns 19
datarows 25
range 3.39000000 3.51000000
endheader

                time	   L_ground_force_vx	   L_ground_force_vy	   L_ground_force_vz	   L_ground_force_px	   L_ground_force_py	   L_ground_force_pz	   R_ground_force_vx	   R_ground_force_vy	   R_ground_force_vz	   R_ground_force_px	   R_ground_force_py	   R_ground_force_pz	   L_ground_torque_x	   L_ground_torque_y	   L_ground_torque_z	   R_ground_torque_x	   R_ground_torque_y	   R_ground_torque_z	
          3.39000000	         21.33887408	        684.74437639	         33.22999704	         -0.25402370	          0.00000000	         -0.07533766	          0.00484674	          0.05161717	          0.00901971	          0.00008092	          0.00000000	          0.00001656	          0.00000000	          1.58968658	          0.00000000	          0.00000000	         -0.00235318	          0.00000000	
          3.39500000	         22.69154862	        689.12626878	         33.48686061	         -0.25227256	          0.00000000	         -0.07540983	          0.00436994	          0.08194818	          0.01311333	          0.00011326	          0.00000000	          0.00002290	          0.00000000	          1.61678882	          0.00000000	          0.00000000	         -0.00295954	          0.00000000	
          3.40000000	         24.02890944	        693.58344694	         33.72415977	         -0.25048853	          0.00000000	         -0.07548447	          0.00308749	          0.11913922	          0.01787960	          0.00014972	          0.00000000	          0.00002997	          0.00000000	          1.64571933	          0.00000000	          0.00000000	         -0.00354009	          0.00000000	
          3.40500000	         25.35183695	        698.10081496	         33.93685066	         -0.24867179	          0.00000000	         -0.07556210	          0.00070689	          0.16244097	          0.02310697	          0.00018811	          0.00000000	          0.00003729	          0.00000000	          1.67664306	          0.00000000	          0.00000000	         -0.00400880	          0.00000000	
          3.41000000	         26.66331719	        702.66393034	         34.12317257	         -0.24682297	          0.00000000	         -0.07564285	         -0.00309255	          0.20993131	          0.02840868	          0.00022477	          0.00000000	          0.00004410	          0.00000000	          1.70990538	          0.00000000	          0.00000000	         -0.00424530	          0.00000000	
          3.41500000	         27.96863255	        707.26229748	         34.28395383	         -0.24494266	          0.00000000	         -0.07572742	         -0.00863592	          0.25809635	          0.03317248	          0.00025422	          0.00000000	          0.00004929	          0.00000000	          1.74592965	          0.00000000	          0.00000000	         -0.00409053	          0.00000000	
          3.42000000	         29.27416042	        711.89048250	         34.42091257	         -0.24303232	          0.00000000	         -0.07581782	         -0.01621508	          0.30137342	          0.03650995	          0.00026879	          0.00000000	          0.00005130	          0.00000000	          1.78524161	          0.00000000	          0.00000000	         -0.00334471	          0.00000000	
          3.42500000	         30.58638981	        716.54383598	         34.53676081	         -0.24109492	          0.00000000	         -0.07591575	         -0.02603411	          0.33169099	          0.03721162	          0.00025836	          0.00000000	          0.00004811	          0.00000000	          1.82844571	          0.00000000	          0.00000000	         -0.00176919	          0.00000000	
          3.43000000	         31.91217524	        721.21532033	         34.63505758	         -0.23913459	          0.00000000	         -0.07602155	         -0.03813495	          0.33806078	          0.03371657	          0.00021023	          0.00000000	          0.00003720	          0.00000000	          1.87589375	          0.00000000	          0.00000000	          0.00090584	          0.00000000	
          3.43500000	         33.25853561	        725.89574955	         34.71827398	         -0.23715634	          0.00000000	         -0.07613476	         -0.05230166	          0.30630131	          0.02410825	          0.00010925	          0.00000000	          0.00001560	          0.00000000	          1.92746878	          0.00000000	          0.00000000	          0.00496550	          0.00000000	
          3.44000000	         34.63231170	        730.57552020	         34.78673338	         -0.23516596	          0.00000000	         -0.07625416	         -0.06794267	          0.21900070	          0.00615201	         -0.00006168	          0.00000000	         -0.00002001	          0.00000000	          1.98265668	          0.00000000	          0.00000000	          0.01068366	          0.00000000	
          3.44500000	         36.03982758	        735.24426384	         34.83912602	         -0.23317077	          0.00000000	         -0.07637774	         -0.08395371	          0.05585695	         -0.02260731	         -0.00032062	          0.00000000	         -0.00007306	          0.00000000	          2.04067750	          0.00000000	          0.00000000	          0.01828286	          0.00000000	
          3.45000000	         37.48763784	        739.89028157	         34.87310313	         -0.23117926	          0.00000000	         -0.07650257	         -0.09856714	         -0.20543482	         -0.06466588	         -0.00068487	          0.00000000	         -0.00014678	          0.00000000	          2.10063005	          0.00000000	          0.00000000	          0.02787811	          0.00000000	
          3.45500000	         38.98276708	        744.49940043	         34.88679283	         -0.22920062	          0.00000000	         -0.07662446	         -0.10919893	         -0.58755204	         -0.12227605	         -0.00116841	          0.00000000	         -0.00024364	          0.00000000	          2.16186807	          0.00000000	          0.00000000	          0.03940259	          0.00000000	
          3.46000000	         40.53167400	        749.05432070	         34.87974208	         -0.22724406	          0.00000000	         -0.07673854	         -0.11231065	         -1.11095620	         -0.19703211	         -0.00177833	          0.00000000	         -0.00036463	          0.00000000	          2.22395072	          0.00000000	          0.00000000	          0.05251418	          0.00000000	
          3.46500000	         42.13827336	        753.53273116	         34.85390755	         -0.22531798	          0.00000000	         -0.07684098	         -0.10331193	         -1.79012994	         -0.28930561	         -0.00251011	          0.00000000	         -0.00050832	          0.00000000	          2.28653901	          0.00000000	          0.00000000	          0.06648366	          0.00000000	
          3.47000000	         43.80448261	        757.90195587	         34.81302256	         -0.22342877	          0.00000000	         -0.07693104	         -0.07653825	         -2.62844640	         -0.39751551	         -0.00334166	          0.00000000	         -0.00066971	          0.00000000	          2.34948408	          0.00000000	          0.00000000	          0.08006808	          0.00000000	
          3.47500000	         45.53153038	        762.11672463	         34.76135916	         -0.22158105	          0.00000000	         -0.07700980	         -0.02534860	         -3.61153883	         -0.51723102	         -0.00422625	          0.00000000	         -0.00083879	          0.00000000	          2.41261897	          0.00000000	          0.00000000	          0.09137670	          0.00000000	
          3.48000000	         47.31937829	        766.11984325	         34.70258913	         -0.21977766	          0.00000000	         -0.07707727	          0.05760169	         -4.69914906	         -0.64012384	         -0.00508445	          0.00000000	         -0.00099899	          0.00000000	          2.47556443	          0.00000000	          0.00000000	          0.09774183	          0.00000000	
          3.48500000	         49.16571766	        769.84123757	         34.63874433	         -0.21801955	          0.00000000	         -0.07713146	          0.17984878	         -5.81560936	         -0.75281517	         -0.00579565	          0.00000000	         -0.00112561	          0.00000000	          2.53760685	          0.00000000	          0.00000000	          0.09561317	          0.00000000	
          3.49000000	         51.06633768	        773.19930458	         34.56932482	         -0.21630578	          0.00000000	         -0.07716885	          0.34829801	         -6.83936697	         -0.83570050	         -0.00618992	          0.00000000	         -0.00118423	          0.00000000	          2.59753329	          0.00000000	          0.00000000	          0.08050199	          0.00000000	
          3.49500000	         53.01662857	        776.10847976	         34.49100464	         -0.21463420	          0.00000000	         -0.07718614	          0.56801941	         -7.59230780	         -0.86188485	         -0.00604133	          0.00000000	         -0.00112959	          0.00000000	          2.65371182	          0.00000000	          0.00000000	          0.04700976	          0.00000000	
          3.50000000	         55.01279911	        778.48660625	         34.39836125	         -0.21300246	          0.00000000	         -0.07718132	          0.84059574	         -7.83008372	         -0.79642160	         -0.00506457	          0.00000000	         -0.00090509	          0.00000000	          2.70439932	          0.00000000	          0.00000000	         -0.01101496	          0.00000000	
          3.50500000	         57.05350167	        780.26183089	         34.28566377	         -0.21140940	          0.00000000	         -0.07715406	          1.16197670	         -7.23519748	         -0.59611839	         -0.00291682	          0.00000000	         -0.00044337	          0.00000000	          2.74794648	          0.00000000	          0.00000000	         -0.10013908	          0.00000000	
          3.51000000	         59.14181640	        781.38063566	         34.14868522	         -0.20985605	          0.00000000	         -0.07710467	          1.51982728	         -5.41524092	         -0.21025149	          0.00079206	          0.00000000	          0.00033130	          0.00000000	          2.78303576	          0.00000000	          0.00000000	         -0.22676746	          0.00000000	
